<?xml version="1.0" encoding="UTF-8"?>
<svg width="39px" height="36px" viewBox="0 0 39 36" version="1.1" xmlns="http://www.w3.org/2000/svg" xmlns:xlink="http://www.w3.org/1999/xlink">
    <title>编组</title>
    <g id="页面-1" stroke="none" stroke-width="1" fill="none" fill-rule="evenodd">
        <g id="账户相片" transform="translate(-99.000000, -157.000000)" fill-rule="nonzero">
            <g id="编组" transform="translate(99.000000, 157.000000)">
                <path d="M5.2009675,25.1282063 L5.2009675,30.4545489 C6.16536585,32.835086 7.29276111,34.1856111 8.5505539,34.5702266 C8.91138687,34.6808607 9.12028123,35.0842872 9.01713251,35.4713051 C8.91398379,35.858323 8.53785231,36.0823764 8.17701932,35.9717424 C6.43023582,35.4370685 5.01623767,33.7194104 3.89699226,30.8886983 L3.84265996,30.6046072 L3.84265996,25.1282063 L1.13691133,27.7651538 C0.858972402,28.0359054 0.429020975,28.0137283 0.176587924,27.7156199 C-0.0758451271,27.4175116 -0.0551685486,26.9563595 0.222770356,26.6856079 L4.52181373,22.5 L8.8208571,26.6856079 C9.09842092,26.9563595 9.11879343,27.4171854 8.86636038,27.7148915 C8.61392732,28.0125976 8.18427997,28.0344485 7.90671612,27.7636969 L5.2009675,25.1282063 Z M33.7991047,5.83843477 C33.8181225,4.25942266 32.6974285,2.76651195 30.3120482,1.37283675 C30.0985093,1.24822837 29.9630714,1.01069958 29.9567526,0.749725192 C29.9504338,0.488750804 30.0741942,0.243979035 30.2814143,0.107613044 C30.4886344,-0.0287529462 30.7478327,-0.0359959183 30.9613715,0.0886124855 C33.7434096,1.71578301 35.1833316,3.63482268 35.1575217,5.864703 L35.0556404,10.9665758 L37.8634884,8.22738378 C38.0430551,8.0519414 38.2961059,7.99274137 38.5273188,8.07208375 C38.7585317,8.15142614 38.93278,8.35725694 38.9844261,8.6120417 C39.0360722,8.86682645 38.9572698,9.13185728 38.777703,9.30729964 L34.4783132,13.5 L30.1789233,9.30729964 C29.9993566,9.13185728 29.9205542,8.86682645 29.9722003,8.61204171 C30.0238464,8.35725697 30.1980947,8.15142616 30.4293076,8.07208378 C30.6605205,7.99274139 30.9135712,8.05194142 31.093138,8.22738378 C32.8319118,9.92314355 33.7012986,10.7710234 33.7012986,10.7710234 L33.7991047,5.83843477 Z" id="形状" fill="#F5B971"></path>
                <path id="矩形" d="M24.7847826,5.203125 C25.0177777,5.203125 25.2066576,5.39200487 25.2066576,5.625 L25.2066576,5.625 L25.2066576,15.013125 C25.2066576,15.2461201 25.0177777,15.435 24.7847826,15.435 L24.7847826,15.435 L1.13043478,15.435 C0.897439654,15.435 0.708559783,15.2461201 0.708559783,15.013125 L0.708559783,15.013125 L0.708559783,5.625 C0.708559783,5.39200487 0.897439654,5.203125 1.13043478,5.203125 L1.13043478,5.203125 Z M24.362,6.046 L1.552,6.046 L1.552,14.591 L24.362,14.591 L24.362,6.046 Z" fill="#AFB1B3"></path>
                <path id="矩形备份" d="M37.7847826,21.515625 C38.0177777,21.515625 38.2066576,21.7045049 38.2066576,21.9375 L38.2066576,21.9375 L38.2066576,31.325625 C38.2066576,31.5586201 38.0177777,31.7475 37.7847826,31.7475 L37.7847826,31.7475 L14.1304348,31.7475 C13.8974397,31.7475 13.7085598,31.5586201 13.7085598,31.325625 L13.7085598,31.325625 L13.7085598,21.9375 C13.7085598,21.7045049 13.8974397,21.515625 14.1304348,21.515625 L14.1304348,21.515625 Z M37.362,22.359 L14.552,22.359 L14.552,30.903 L37.362,30.903 L37.362,22.359 Z" fill="#AFB1B3"></path>
                <text id="Model" fill="#AFB1B3" font-family="HannotateTC-W7, Hannotate TC" font-size="6.75" font-weight="bold">
                    <tspan x="2.620375" y="13.0625">Model</tspan>
                </text>
                <text id="Model" fill="#AFB1B3" font-family="HannotateTC-W7, Hannotate TC" font-size="6.75" font-weight="bold">
                    <tspan x="15.520375" y="28.9375">Model</tspan>
                </text>
            </g>
        </g>
    </g>
</svg>